# xmcd
#
# Track frame offsets: 
#        150
#        21514
#        42241
#        78090
#        107628
#        124271
#        150715
#        173884
#        194473
#        223708
#
# Disc length: 3307 seconds
#
# Revision: 0
# Processed by: cddbd v1.5.2PL0 Copyright (c) Steve Scherf et al.
# Submitted via: ExactAudioCopy v0.99pb4
#
DISCID=850ce90a
DTITLE=Vienna Teng - Bremen March 2009 1
DYEAR=1900
DGENRE=
TTITLE0=Whatever You Want
TTITLE1=Blue Caravan
TTITLE2=Gravity
TTITLE3=Antebellum
TTITLE4=In Another Life
TTITLE5=Kansas
TTITLE6=I Don't Feel So Well
TTITLE7=1BR - 1BA
TTITLE8=The Last Snowfall
TTITLE9=In The Creases (Alex Wong voc)
EXTD=
EXTT0=
EXTT1=
EXTT2=
EXTT3=
EXTT4=
EXTT5=
EXTT6=
EXTT7=
EXTT8=
EXTT9=
PLAYORDER=
